<svg xmlns="http://www.w3.org/2000/svg" xmlns:xlink="http://www.w3.org/1999/xlink" xml:space="preserve" version="1.1" style="shape-rendering:geometricPrecision;text-rendering:geometricPrecision;image-rendering:optimizeQuality;" viewBox="0 0 540 516.25" x="0px" y="0px" fill-rule="evenodd" clip-rule="evenodd"><defs><style type="text/css">
   
    .fil0 {fill:black}
   
  </style></defs><g><path class="fil0" d="M25 212l19 -43 -18 0c-20,-10 -26,-23 -26,-44l63 1 41 -93c18,-22 35,-34 49,-33 79,1 156,1 234,0 14,-1 31,11 49,33l41 93 63 -1c0,21 -6,34 -26,44l-18 0 19 43c0,60 0,119 0,179 0,12 -10,22 -22,22l-75 0c-12,0 -22,-10 -22,-22l0 -51 -252 0 0 51c0,12 -10,22 -22,22l-75 0c-12,0 -22,-10 -22,-22 0,-60 0,-119 0,-179zm133 -174c-7,1 -14,7 -22,16 -14,31 -29,61 -43,92l355 0c-15,-31 -30,-61 -44,-92 -8,-9 -15,-15 -22,-16l-224 0zm52 210c-10,0 -17,8 -17,18 0,10 7,18 17,18l120 0c10,0 18,-8 18,-18 0,-10 -8,-18 -18,-18l-120 0zm234 -31c-19,0 -35,15 -35,35 0,20 16,35 35,35 20,0 36,-15 36,-35 0,-20 -16,-35 -36,-35zm-348 0c19,0 35,15 35,35 0,20 -16,35 -35,35 -20,0 -36,-15 -36,-35 0,-20 16,-35 36,-35z"/></g><text x="0" y="428" fill="#000000" font-size="5px" font-weight="bold" font-family="'Helvetica Neue', Helvetica, Arial-Unicode, Arial, Sans-serif">Created by REVA</text><text x="0" y="433" fill="#000000" font-size="5px" font-weight="bold" font-family="'Helvetica Neue', Helvetica, Arial-Unicode, Arial, Sans-serif">from the Noun Project</text></svg>